<?xml version="1.0" standalone="no"?>
<!DOCTYPE svg PUBLIC "-//W3C//DTD SVG 20010904//EN"
 "http://www.w3.org/TR/2001/REC-SVG-20010904/DTD/svg10.dtd">
<svg version="1.0" xmlns="http://www.w3.org/2000/svg"
 width="700.000000pt" height="700.000000pt" viewBox="0 0 700.000000 700.000000"
 preserveAspectRatio="xMidYMid meet">
<metadata>
Created by potrace 1.14, written by Peter Selinger 2001-2017
</metadata>
<g transform="translate(0.000000,700.000000) scale(0.100000,-0.100000)"
fill="#000000" stroke="none">
<path d="M4540 5902 c-25 -8 -60 -44 -101 -103 -49 -73 -209 -359 -293 -526
-25 -51 -26 -52 -58 -41 -72 22 -205 56 -243 62 -22 3 -51 8 -65 11 -34 7
-192 18 -265 18 -428 0 -873 -173 -1183 -458 -106 -97 -176 -175 -258 -288
l-51 -70 -245 2 c-196 2 -246 0 -249 -11 -4 -11 -4 -1204 0 -1260 1 -16 14
-18 125 -18 l124 0 6 -32 c19 -100 43 -183 83 -283 99 -250 221 -433 417 -627
l108 -107 -87 -128 c-111 -162 -254 -362 -278 -388 -18 -20 -18 -20 -9 5 14
35 54 122 138 299 89 186 93 217 27 233 -44 11 -55 -4 -171 -252 -76 -163 -89
-192 -127 -285 -75 -181 -84 -244 -41 -282 45 -38 106 -10 183 85 20 26 40 49
43 52 15 13 189 253 299 412 78 113 127 175 134 171 7 -4 43 -27 80 -51 130
-84 357 -181 497 -213 123 -29 152 -34 260 -46 120 -13 357 -7 465 13 26 5
155 32 180 38 87 21 270 94 363 143 62 34 231 140 242 153 3 3 30 25 60 50
119 95 309 311 375 425 10 16 15 14 55 -23 l45 -41 27 26 c27 26 29 26 183 26
150 0 155 1 156 21 0 12 1 301 2 644 1 409 -1 622 -8 623 -5 0 -57 1 -114 2
l-103 2 -33 120 c-54 196 -116 337 -220 500 -169 264 -404 477 -686 623 l-96
50 49 93 c27 52 67 126 88 164 21 39 54 100 74 137 20 37 47 84 62 105 l25 38
-2 -60 c-3 -71 -43 -229 -87 -338 -18 -43 -32 -89 -32 -103 0 -34 43 -60 78
-48 22 8 34 29 73 124 26 63 45 117 43 119 -2 2 1 11 5 20 5 9 11 30 14 46 3
17 10 53 17 80 12 55 16 210 6 265 -7 35 -30 79 -44 81 -26 5 -49 5 -62 1z"/>
</g>
</svg>
